HIERARCHY
ROOT COM
{
  OFFSET -10.5682 89.9488 26.191
  CHANNELS 6 Xposition Yposition Zposition Zrotation Xrotation Yrotation
  JOINT Spine
  {
    OFFSET 0 10.0313 -3.64775
    CHANNELS 3 Zrotation Xrotation Yrotation
    JOINT Spine1
    {
      OFFSET 0 14.268 -0.0123585
      CHANNELS 3 Zrotation Xrotation Yrotation
      JOINT Spine2
      {
        OFFSET 0 15.5534 -0.0118018
        CHANNELS 3 Zrotation Xrotation Yrotation
        JOINT Neck
        {
          OFFSET 0 15.3437 -0.00507736
          CHANNELS 3 Zrotation Xrotation Yrotation
          JOINT Head
          {
            OFFSET 0 6.5943 0
            CHANNELS 3 Zrotation Xrotation Yrotation
            End Site
            {
              OFFSET 0 0 0
            }
          }
          JOINT Leftcollar
          {
            OFFSET 4.25429 -1.5481 1.99067
            CHANNELS 3 Zrotation Xrotation Yrotation
            JOINT LeftArm
            {
              OFFSET 16.8259 0 0
              CHANNELS 3 Zrotation Xrotation Yrotation
              JOINT LeftForeArm
              {
                OFFSET 0 -28.058 0
                CHANNELS 3 Zrotation Xrotation Yrotation
                JOINT LeftHand
                {
                  OFFSET 0 -24.7253 0
                  CHANNELS 3 Zrotation Xrotation Yrotation
                  End Site
                  {
                    OFFSET -2.98615 -9.94619 -0.575321
                  }
                }
              }
            }
          }
          JOINT RightCollar
          {
            OFFSET -4.25428 -1.54809 1.99069
            CHANNELS 3 Zrotation Xrotation Yrotation
            JOINT RightArm
            {
              OFFSET -16.8259 0 0
              CHANNELS 3 Zrotation Xrotation Yrotation
              JOINT RightForeArm
              {
                OFFSET 0 -28.058 0
                CHANNELS 3 Zrotation Xrotation Yrotation
                JOINT RightHand
                {
                  OFFSET 0 -24.7253 0
                  CHANNELS 3 Zrotation Xrotation Yrotation
                  End Site
                  {
                    OFFSET 2.98615 -9.94618 -0.575319
                  }
                }
              }
            }
          }
        }
      }
    }
  }
  JOINT LeftUpLeg
  {
    OFFSET 9.94275 0 0
    CHANNELS 3 Zrotation Xrotation Yrotation
    JOINT LeftLeg
    {
      OFFSET 0 -45.973 0
      CHANNELS 3 Zrotation Xrotation Yrotation
      JOINT LeftFoot
      {
        OFFSET 0 -43.1634 0
        CHANNELS 3 Zrotation Xrotation Yrotation
        JOINT LeftToe
        {
          OFFSET 0 0 15.6286
          CHANNELS 3 Zrotation Xrotation Yrotation
          End Site
          {
            OFFSET 0 0 0
          }
        }
      }
    }
  }
  JOINT RightUpLeg
  {
    OFFSET -9.94275 0 0
    CHANNELS 3 Zrotation Xrotation Yrotation
    JOINT RightLeg
    {
      OFFSET 0 -45.973 0
      CHANNELS 3 Zrotation Xrotation Yrotation
      JOINT RightFoot
      {
        OFFSET 0 -43.1634 0
        CHANNELS 3 Zrotation Xrotation Yrotation
        JOINT RightToe
        {
          OFFSET 0 0 15.6286
          CHANNELS 3 Zrotation Xrotation Yrotation
          End Site
          {
            OFFSET 0 0 0
          }
        }
      }
    }
  }
}
MOTION
Frames:	12
Frame Time:	0.0333333
-19.5158 90.8498 -114.746 8.07373 4.83427 -4.33472 -10.0581 -5.06132 -0 3.41017e-016 3.97569e-016 18.0175 3.97569e-016 1.98785e-016 -0 2.48481e-017 -9.93923e-017 -1.59028e-015 4.96962e-017 0 -0 4.96962e-017 0 -0 19.2236 23.9347 -24.7546 -0 -11.3701 -0 -2.38542e-015 1.46065e-031 90 4.96962e-017 0 -0 -26.7722 -14.5427 9.01057 -3.37195e-015 -43.2232 4.36475e-015 1.90833e-014 1.16852e-030 -90 -13.7075 -16.6614 34.1246 -1.38292e-015 5.27927 6.38821e-015 1.05266e-006 24.4627 -27.3899 -4.57205e-015 -1.59028e-015 -0 -12.7702 9.70198 -30.3387 -3.18055e-015 38.051 -0 2.364e-007 19.3101 16.9819 3.18055e-015 -6.36111e-015 -0 
-19.6685 91.5041 -110.858 7.68218 3.48379 -4.20908 -9.77903 -4.08903 -7.97168e-016 1.23445e-015 -1.16786e-015 16.6552 1.2424e-017 -1.2424e-017 -0 6.21202e-018 4.96962e-017 -0 -4.00675e-016 -8.69683e-017 1.59028e-015 -4.00675e-016 -8.69683e-017 1.59028e-015 18.3665 21.8397 -28.2684 -1.11148e-015 -11.2504 -1.62143e-015 1.23246e-014 -7.54667e-031 90 -4.00675e-016 -8.69683e-017 1.59028e-015 -24.879 -12.4117 11.6919 7.49237e-015 -41.8069 -4.26693e-015 -3.18055e-015 -1.94753e-031 -90 -12.9646 -13.052 37.4278 -1.4133e-015 6.33896 1.28005e-014 -3.84229e-007 22.483 -30.6579 8.94531e-015 3.18055e-015 7.95139e-016 -14.4134 5.67557 -24.7971 -7.95139e-016 48.2399 -0 -2.30978e-007 27.0858 11.7531 0 1.59028e-015 -0 
-19.8071 92.0206 -107.509 7.20705 3.12257 -4.9408 -9.08329 -3.85755 1.59389e-015 2.93864e-016 -2.48481e-017 15.7717 -1.55689e-016 -6.83322e-017 -0 -5.51705e-016 -3.41661e-017 -1.59028e-015 -1.63066e-016 -2.79541e-017 -1.59028e-015 -1.63066e-016 -2.79541e-017 -1.59028e-015 17.7716 18.791 -30.9701 -4.06124e-015 -12.5769 3.25875e-015 -7.55382e-015 4.62538e-031 90 -1.63066e-016 -2.79541e-017 -1.59028e-015 -23.4529 -10.2971 14.6895 7.95139e-016 -39.7908 -0 -3.18055e-015 -1.94753e-031 -90 -12.479 -10.2261 39.9873 -5.65241e-016 5.76198 9.59012e-015 -7.10667e-007 21.0759 -32.6828 -4.77083e-015 -6.36111e-015 -7.95139e-016 -15.1676 -0.180274 -20.3165 1.95639e-014 57.1777 -1.76034e-014 -1.00317e-008 25.7328 6.04929 6.36111e-015 7.95139e-016 -3.97569e-016 
-19.9205 92.4968 -104.062 5.93551 1.7949 -4.41304 -7.6645 -2.56723 7.95938e-016 5.26306e-016 -1.11816e-015 13.9005 2.17421e-016 2.48481e-017 -1.59028e-015 2.11209e-016 2.48481e-017 -1.59028e-015 -2.04997e-016 7.45443e-017 -3.18055e-015 -2.04997e-016 7.45443e-017 -3.18055e-015 17.7922 15.1767 -35.6552 -8.20179e-016 -14.46 -3.2846e-015 6.36111e-015 -3.89506e-031 90 -2.04997e-016 7.45443e-017 -3.18055e-015 -22.1884 -7.75516 17.3607 -3.23179e-015 -37.4561 -4.00665e-015 9.54166e-015 5.84258e-031 -90 -11.8218 -6.08654 40.1172 -1.36115e-015 4.60296 -1.27634e-014 2.77738e-007 19.6564 -33.2106 3.37934e-015 -6.36111e-015 -4.77083e-015 -14.6434 -3.94815 -17.3101 4.96962e-016 62.1071 -0 4.00547e-008 20.3432 2.20802 -6.36111e-015 1.59028e-015 7.95139e-016 
-20.026 92.7782 -100.902 4.78168 1.3593 -3.59105 -6.3263 -1.93114 7.95591e-016 -6.9715e-017 7.95139e-016 11.9392 -1.02498e-016 4.96962e-017 -0 -1.02498e-016 9.93923e-017 -1.59028e-015 -9.31803e-017 2.48481e-017 -0 -9.31803e-017 2.48481e-017 -0 18.3604 10.6236 -39.152 -1.59028e-015 -17.2686 -0 -1.39149e-014 8.52044e-031 90 -9.31803e-017 2.48481e-017 -0 -21.0877 -4.75568 19.0354 -3.02996e-015 -35.0938 -3.8872e-015 6.36111e-015 3.89506e-031 -90 -10.9987 -3.2666 39.4916 -6.59766e-016 4.2215 -3.18921e-015 2.57179e-007 17.7913 -33.3713 3.97569e-016 -3.18055e-015 1.59028e-015 -13.9205 -8.73661 -15.3113 3.28129e-015 64.4658 7.37862e-015 -2.36746e-008 17.933 -0.963963 6.36111e-015 1.59028e-015 -0 
-20.1134 92.9022 -97.8185 3.84319 1.39884 -2.03063 -5.29793 -1.65401 -0 -1.07766e-016 -3.47873e-016 9.66119 -3.69615e-016 -1.2424e-017 -0 -1.72384e-016 3.72721e-017 -1.59028e-015 -1.72384e-016 -1.2424e-017 -1.59028e-015 -1.72384e-016 -1.2424e-017 -1.59028e-015 19.3547 5.67573 -40.0701 1.95885e-015 -21.0127 -3.40713e-015 7.95139e-016 -4.86882e-032 90 -1.72384e-016 -1.2424e-017 -1.59028e-015 -20.0306 -1.25788 19.5358 2.5842e-015 -32.5695 -0 -0 -0 -90 -10.1272 -1.23831 38.5494 6.97166e-016 4.49257 -3.19036e-015 2.6167e-007 15.9245 -33.7248 -5.96354e-016 -3.18055e-015 -7.95139e-016 -13.3699 -13.2054 -14.6011 -1.70118e-015 63.829 7.2113e-015 2.58486e-008 15.8433 -2.57666 -6.36111e-015 0 -0 
-20.199 92.8968 -94.8251 3.21588 1.24444 -0.671318 -4.60022 -1.08847 -0 -2.76108e-016 2.48481e-017 7.7611 -2.73329e-016 2.48481e-017 -1.59028e-015 -2.73329e-016 7.45443e-017 -1.59028e-015 -2.54693e-016 7.45443e-017 -1.59028e-015 -2.54693e-016 7.45443e-017 -1.59028e-015 20.5297 0.615485 -39.1569 1.6014e-015 -25.1559 1.40553e-014 3.18055e-015 -1.94753e-031 90 -2.54693e-016 7.45443e-017 -1.59028e-015 -19.0958 2.02992 19.4557 -5.589e-016 -29.359 7.29849e-015 3.18055e-015 1.94753e-031 -90 -9.37179 0.696632 37.7119 -1.38253e-015 5.27577 6.38817e-015 6.23141e-007 13.8672 -33.9602 -1.78906e-015 3.18055e-015 1.59028e-015 -12.8754 -17.3084 -13.6543 7.83898e-015 61.0769 -9.86452e-015 -2.11214e-008 13.7875 -3.06992 1.59028e-015 -9.54166e-015 -0 
-20.34 92.7919 -91.9265 2.69276 1.42888 0.458897 -4.03237 -0.711492 9.94e-017 -2.21619e-016 1.98785e-016 6.21798 4.09993e-016 0 -2.38542e-015 6.21202e-016 -9.93923e-017 -2.38542e-015 4.5969e-016 -9.93923e-017 -2.38542e-015 4.5969e-016 -9.93923e-017 -2.38542e-015 21.8581 -4.3165 -36.4766 3.79994e-016 -29.5977 -3.65785e-015 -3.18055e-015 1.94753e-031 90 4.5969e-016 -9.93923e-017 -2.38542e-015 -18.33 5.17573 19.6389 -2.38542e-015 -25.6456 -0 4.77083e-015 2.92129e-031 -90 -8.50402 2.08139 36.8371 -3.03147e-016 6.28615 6.39959e-015 -7.87154e-008 11.7354 -34.235 -1.78906e-015 -3.18055e-015 -7.95139e-016 -12.4591 -20.9952 -13.6578 -2.33811e-015 55.7782 2.82767e-015 -1.05508e-008 11.8885 -3.43926 1.76556e-031 6.36111e-015 -1.59028e-015 
-20.5696 92.6377 -88.9021 2.11422 1.75973 1.54155 -3.48373 -0.624318 -0 -1.32584e-016 -1.98785e-016 4.90294 9.93923e-017 -1.98785e-016 -7.95139e-016 9.93923e-017 0 -7.95139e-016 9.93923e-017 -1.98785e-016 -7.95139e-016 9.93923e-017 -1.98785e-016 -7.95139e-016 23.5118 -8.82788 -34.0485 -6.12945e-015 -34.1044 -3.84117e-015 -1.27222e-014 7.79011e-031 90 9.93923e-017 -1.98785e-016 -7.95139e-016 -17.6014 8.02107 19.1943 -6.83921e-015 -21.1893 -6.82236e-015 2.38542e-015 1.46065e-031 -90 -7.65951 3.53945 35.6107 1.97e-015 6.80828 -3.20314e-015 -6.85749e-007 9.86307 -33.915 -2.18663e-015 3.18055e-015 7.95139e-016 -11.8021 -23.8436 -14.5085 9.88107e-016 48.2738 -2.38934e-015 3.02541e-008 11.1527 -3.7841 3.18055e-015 6.36111e-015 -1.59028e-015 
-20.8115 92.4088 -85.932 1.54924 2.68436 2.33956 -2.95144 -1.0779 -3.9764e-016 9.96387e-017 0 4.03013 -1.2424e-016 -1.98785e-016 1.59028e-015 -2.48481e-017 -3.97569e-016 1.59028e-015 -4.96962e-017 -1.98785e-016 1.59028e-015 -4.96962e-017 -1.98785e-016 1.59028e-015 25.2936 -13.0459 -31.4689 -9.6705e-015 -38.3266 -4.0543e-015 -1.90833e-014 1.16852e-030 90 -4.96962e-017 -1.98785e-016 1.59028e-015 -17.1783 10.9513 19.3786 2.59749e-015 -17.5719 3.33623e-015 -1.19271e-014 -7.30323e-031 -90 -6.74829 4.20302 33.9561 7.35563e-016 7.65275 6.41827e-015 -2.33186e-007 7.89231 -33.0635 3.37934e-015 -6.36111e-015 -7.95139e-016 -10.9972 -26.2163 -16.5874 -1.59028e-015 38.5848 -0 1.73392e-008 11.3738 -3.07253 1.59028e-015 -3.18055e-015 -0 
-21.0382 92.1413 -82.7437 1.2083 3.5799 3.63189 -2.67655 -1.61451 -0 1.17525e-016 -3.97569e-016 2.59672 -1.49089e-016 -1.98785e-016 1.59028e-015 -1.98785e-016 -3.97569e-016 7.95139e-016 -4.96962e-017 -3.97569e-016 7.95139e-016 -4.96962e-017 -3.97569e-016 7.95139e-016 27.076 -16.6347 -28.8246 7.60926e-015 -41.7467 4.26293e-015 1.27222e-014 -7.79011e-031 90 -4.96962e-017 -3.97569e-016 7.95139e-016 -16.7854 13.4441 18.5007 -0 -13.97 -0 1.54058e-015 9.43334e-032 -90 -6.01136 5.20664 32.924 -3.45042e-016 8.05474 -3.21224e-015 -2.73124e-007 6.60308 -33.2785 -2.78299e-015 -3.18055e-015 7.95139e-016 -10.2234 -26.9158 -21.1625 -1.58343e-015 26.3673 1.77493e-015 -9.38661e-010 14.0324 1.23418 -4.41391e-032 1.59028e-015 1.59028e-015 
-21.2275 91.7092 -79.4618 1.29837 4.93232 4.94248 -2.96559 -2.60246 -7.9596e-016 1.60433e-016 -3.97569e-016 1.62584 -2.98177e-016 3.97569e-016 1.59028e-015 -3.47873e-016 3.97569e-016 7.95139e-016 -3.47873e-016 3.97569e-016 7.95139e-016 -3.47873e-016 3.97569e-016 7.95139e-016 28.9573 -19.873 -26.7834 -3.18055e-015 -44.972 -0 -3.18055e-015 1.94753e-031 90 -3.47873e-016 3.97569e-016 7.95139e-016 -16.6443 16.2144 17.1167 -5.00813e-016 -11.5153 -6.49178e-015 2.78299e-015 1.70409e-031 -90 -5.7546 5.91945 32.2468 4.57383e-016 8.18337 -3.21327e-015 1.36701e-007 5.60984 -33.8291 -1.19271e-015 0 7.95139e-016 -9.32726 -27.4045 -28.4032 1.59028e-015 13.7722 -0 -1.79598e-007 17.3537 11.7682 5.96354e-016 -1.59028e-015 -3.18055e-015 
